<?xml version="1.0" encoding="UTF-8" standalone="no"?>
<svg
   width="48"
   height="48"
   version="1.1"
   id="svg316"
   sodipodi:docname="icon-view.svg"
   xmlns:inkscape="http://www.inkscape.org/namespaces/inkscape"
   xmlns:sodipodi="http://sodipodi.sourceforge.net/DTD/sodipodi-0.dtd"
   xmlns="http://www.w3.org/2000/svg"
   xmlns:svg="http://www.w3.org/2000/svg">
  <defs
     id="defs320" />
  <sodipodi:namedview
     id="namedview318"
     pagecolor="#ffffff"
     bordercolor="#666666"
     borderopacity="1.0"
     inkscape:pageshadow="2"
     inkscape:pageopacity="0.0"
     inkscape:pagecheckerboard="0"
     showgrid="false" />
  <g
     fill="none"
     fill-rule="evenodd"
     id="g314">
    <path
       d="M0 0h48v48H0z"
       id="path310" />
    <path
       d="M 24,9 C 14,9 5.46,15.22 2,24 5.46,32.78 14,39 24,39 34.01,39 42.54,32.78 46,24 42.54,15.22 34.01,9 24,9 Z m 0,25 c -5.52,0 -10,-4.48 -10,-10 0,-5.52 4.48,-10 10,-10 5.52,0 10,4.48 10,10 0,5.52 -4.48,10 -10,10 z m 0,-16 c -3.31,0 -6,2.69 -6,6 0,3.31 3.33603,8.907133 6.64603,8.907133 C 27.95603,32.907133 30,27.31 30,24 30,20.69 27.31,18 24,18 Z"
       fill="#FFF"
       fill-rule="nonzero"
       id="path312"
       style="fill:#241c1c"
       sodipodi:nodetypes="scscsssssssssss" />
  </g>
</svg>
